<?xml version="1.0" encoding="iso-8859-1"?>
<!-- Uploaded to: SVG Repo, www.svgrepo.com, Generator: SVG Repo Mixer Tools -->
<svg height="800px" width="800px" version="1.1" id="Layer_1" xmlns="http://www.w3.org/2000/svg" xmlns:xlink="http://www.w3.org/1999/xlink" 
	 viewBox="0 0 512 512" xml:space="preserve">
<path style="fill:#0778B8;" d="M256,512C114.51,512,0,397.503,0,256C0,114.51,114.497,0,256,0c141.49,0,256,114.497,256,256
	C512,397.49,397.503,512,256,512z"/>
<path style="fill:#224F9C;" d="M256,0v512c141.503,0,256-114.509,256-256S397.503,0,256,0z"/>
<path style="fill:#FFCE3E;" d="M256,456.348c-110.472,0-200.348-89.876-200.348-200.348S145.528,55.652,256,55.652
	S456.348,145.528,456.348,256S366.472,456.348,256,456.348z"/>
<g>
	<path style="fill:#F59D00;" d="M256,55.652v400.696c110.472,0,200.348-89.876,200.348-200.348S366.472,55.652,256,55.652z"/>
	<path style="fill:#F59D00;" d="M451.567,212.454c-2.505-11.258-5.96-22.162-10.277-32.623l-125.218,72.296
		c0-8.696,0-180.306,0-187.27c-10.77-3.391-21.929-5.891-33.391-7.424v144.605c-24.395-14.084-159.578-92.132-162.076-93.575
		c-8.408,7.722-16.152,16.152-23.146,25.194l125.149,72.255c-7.739,4.468-156.779,90.516-162.176,93.633
		c2.505,11.258,5.96,22.162,10.277,32.623l125.218-72.296c0,8.696,0,180.306,0,187.27c10.77,3.391,21.929,5.891,33.391,7.424
		V309.961c24.396,14.084,159.578,92.132,162.076,93.575c8.408-7.722,16.152-16.152,23.146-25.194l-125.149-72.255
		C297.13,301.619,446.17,215.571,451.567,212.454z"/>
</g>
<path style="fill:#E87E04;" d="M451.567,212.454c-2.505-11.258-5.96-22.162-10.277-32.623l-125.218,72.296
	c0-8.696,0-180.306,0-187.27c-10.77-3.391-21.929-5.891-33.391-7.424v144.605c-4.974-2.872-14.557-8.405-26.681-15.405v138.731
	c47.33,27.326,133.406,77.023,135.395,78.17c8.408-7.722,16.152-16.152,23.146-25.194l-125.149-72.254
	C297.13,301.618,446.17,215.571,451.567,212.454z"/>
</svg>