<?xml version="1.0" encoding="iso-8859-1"?>
<!-- Uploaded to: SVG Repo, www.svgrepo.com, Generator: SVG Repo Mixer Tools -->
<svg version="1.1" id="Layer_1" xmlns="http://www.w3.org/2000/svg" xmlns:xlink="http://www.w3.org/1999/xlink" 
	 viewBox="0 0 512 512" xml:space="preserve">
<rect x="0" y="99.056" style="fill:#CCCCCC;" width="512" height="368.08"/>
<rect x="16" y="115.104" style="fill:#F2F2F2;" width="480" height="336"/>
<path d="M512,99.056v-25.44c0-15.816-12.936-28.752-28.752-28.752h-368.24H28.752C12.936,44.864,0,57.8,0,73.616v25.432h512V99.056z
	"/>
<path style="opacity:0.25;fill:#FFFFFF;enable-background:new    ;" d="M147.04,44.864h-32.024H28.752
	C12.936,44.864,0,57.8,0,73.616v25.432h115.888L147.04,44.864z"/>
<circle style="fill:#D80E47;" cx="40.536" cy="71.96" r="8.184"/>
<circle style="fill:#05C3D6;" cx="65.096" cy="71.96" r="8.184"/>
<g>
	<circle style="fill:#FFFFFF;" cx="89.656" cy="71.96" r="8.184"/>
	<path style="fill:#FFFFFF;" d="M428.256,86.336H170.88c-7.904,0-14.376-6.472-14.376-14.376l0,0
		c0-7.904,6.472-14.376,14.376-14.376h257.376c7.904,0,14.376,6.472,14.376,14.376l0,0C442.632,79.864,436.16,86.336,428.256,86.336
		z"/>
</g>
<path d="M180.576,65.4l1.968,7.56c0.432,1.672,0.832,3.2,1.112,4.752h0.096c0.336-1.512,0.832-3.112,1.32-4.72l2.432-7.592h2.28
	l2.304,7.456c0.552,1.784,0.984,3.344,1.32,4.856h0.096c0.24-1.512,0.648-3.08,1.144-4.832l2.12-7.488h2.68l-4.8,14.888h-2.464
	l-2.28-7.112c-0.52-1.656-0.952-3.144-1.32-4.888h-0.064c-0.368,1.784-0.832,3.328-1.352,4.92l-2.4,7.08h-2.464l-4.496-14.888h2.768
	V65.4z"/>
<path d="M203.552,65.4l1.968,7.56c0.432,1.672,0.832,3.2,1.112,4.752h0.096c0.336-1.512,0.832-3.112,1.32-4.72l2.432-7.592h2.28
	l2.304,7.456c0.552,1.784,0.984,3.344,1.32,4.856h0.096c0.24-1.512,0.648-3.08,1.144-4.832l2.12-7.488h2.68l-4.8,14.888h-2.472
	l-2.28-7.112c-0.52-1.656-0.952-3.144-1.32-4.888h-0.064c-0.368,1.784-0.832,3.328-1.352,4.92l-2.4,7.08h-2.464l-4.496-14.888h2.776
	V65.4z"/>
<path d="M226.52,65.4l1.968,7.56c0.432,1.672,0.832,3.2,1.112,4.752h0.096c0.336-1.512,0.832-3.112,1.32-4.72l2.432-7.592h2.28
	l2.304,7.456c0.552,1.784,0.984,3.344,1.32,4.856h0.096c0.24-1.512,0.648-3.08,1.144-4.832l2.12-7.488h2.68l-4.8,14.888h-2.464
	l-2.28-7.112c-0.52-1.656-0.952-3.144-1.32-4.888h-0.064c-0.368,1.784-0.832,3.328-1.352,4.92l-2.4,7.08h-2.464l-4.496-14.888h2.768
	V65.4z"/>
<path d="M246.2,78.696c0-1.144,0.768-1.936,1.84-1.936s1.816,0.8,1.816,1.936c0,1.112-0.704,1.936-1.84,1.936
	C246.928,80.64,246.2,79.808,246.2,78.696z"/>
<g>
	<rect x="461.328" y="70.328" style="fill:#FFFFFF;" width="23" height="4"/>
	<polygon style="fill:#FFFFFF;" points="474.592,84.264 471.752,81.432 480.864,72.328 471.752,63.232 474.592,60.4 486.52,72.328 	
		"/>
</g>
<polygon style="fill:#C9C9C9;" points="429.824,67.312 422.168,77.216 414.512,67.312 "/>
<path style="fill:#FFFFFF;" d="M492,119.104v328H20v-328H492 M496,115.104H16v336h480V115.104L496,115.104z"/>
<polygon style="fill:#05C3D6;" points="213.888,367.48 213.888,148.632 115.256,193.848 115.256,423.256 "/>
<polygon style="fill:#00B2BF;" points="306.056,201.416 306.056,418.688 213.888,367.48 213.888,148.632 "/>
<polygon style="fill:#05C3D6;" points="396.808,142.96 306.056,201.416 306.056,418.688 396.808,364.8 "/>
</svg>